# xmcd
#
# Track frame offsets:
#       150
#       18329
#       35495
#       46270
#       66886
#       88250
#       103045
#       117090
#       131166
#       141281
#       158582
#       179737
#       199730
#       215456
#       227806
#       245197
#       262933
#       287599
#       299499
#       316185
#
# Disc length: 4547 seconds
#
# Revision: 0
# Processed by: cddbd v1.5.1PL0 Copyright (c) Steve Scherf et al.
# Submitted via: CD-DA_X-Tractor v0.23
#
DISCID=3011c114
DTITLE=Pure Prairie League - Live! Takin' The Stage
DYEAR=1977
DGENRE=Country Rock
TTITLE0=Kansas City Southern
TTITLE1=Harvest
TTITLE2=I'll Change Your Flat Tire, Merle
TTITLE3=Lucille Crawfield
TTITLE4=Two Lane Highway
TTITLE5=Country Song
TTITLE6=Out In The Street
TTITLE7=Dark Colours
TTITLE8=That'll Be The Day
TTITLE9=Sun Shone Lightly
TTITLE10=Heart Of Her Own
TTITLE11=Amie
TTITLE12=Pickin' To Beat The Devil
TTITLE13=Kentucky Moonshine
TTITLE14=Fade Away
TTITLE15=Feelin' Of Love
TTITLE16=Dance
TTITLE17=Louise (What I Did)
TTITLE18=All The Lonesome Cowboys
TTITLE19=Came Through
EXTD=
EXTT0=
EXTT1=
EXTT2=
EXTT3=
EXTT4=
EXTT5=
EXTT6=
EXTT7=
EXTT8=
EXTT9=
EXTT10=
EXTT11=
EXTT12=
EXTT13=
EXTT14=
EXTT15=
EXTT16=
EXTT17=
EXTT18=
EXTT19=
PLAYORDER=
